<?xml version="1.0" encoding="UTF-8" standalone="no"?>
<!DOCTYPE svg PUBLIC "-//W3C//DTD SVG 1.1//EN" "http://www.w3.org/Graphics/SVG/1.1/DTD/svg11.dtd">
<svg width="100%" height="100%" viewBox="0 0 181 137" version="1.1" xmlns="http://www.w3.org/2000/svg" xmlns:xlink="http://www.w3.org/1999/xlink" xml:space="preserve" xmlns:serif="http://www.serif.com/" style="fill-rule:evenodd;clip-rule:evenodd;stroke-linejoin:round;stroke-miterlimit:1.41421;">
    <g transform="matrix(1,0,0,1,-248.607,-318.825)">
        <path d="M360.761,444.206C353.818,447.561 341.568,452.575 334.845,448.888C326.893,444.527 347.901,394.499 344.991,389.898C342.081,385.297 304.052,391.491 299.215,395.561C294.377,399.631 278.333,424.079 279.161,444.992C279.326,449.161 266.809,448.888 264.292,448.888C262.405,448.888 260.635,448.219 258.983,446.882C257.332,445.545 255.877,443.854 254.618,441.809C253.36,439.764 252.376,437.562 251.669,435.202C250.961,432.843 250.607,430.64 250.607,428.595C250.607,427.18 251.197,425.371 252.376,423.168C253.556,420.966 255.09,418.567 256.978,415.971C258.865,413.376 261.107,410.78 263.703,408.185C266.298,405.589 269.012,403.19 271.843,400.988C273.416,399.729 274.95,397.606 276.444,394.617C277.939,391.628 279.276,387.578 280.456,382.465C281.636,377.353 282.579,371.1 283.287,363.706C283.694,359.461 269.197,361.203 266.742,357.154C260.586,346.999 273,343.24 283.926,334.977C302.274,321.101 310.491,313.076 314.08,331.852C315.324,338.361 311.142,350.994 309.715,357.335C307.591,366.774 303.236,374.584 305.438,378.241C307.641,381.898 345.089,377.077 350.418,374.56C353.827,372.95 362.059,349.588 363.632,346.835C365.205,344.082 351.999,339.694 366.944,328.989C392.651,310.575 403.509,330.436 403.509,330.436C389.666,350.256 379.677,368.032 373.542,383.763C367.407,399.494 364.182,413.258 363.868,425.056C363.719,428.471 363.711,431.255 363.843,433.409C364.639,432.358 365.328,431.39 365.91,430.506C366.646,429.386 367.26,428.239 367.75,427.066C368.241,425.893 368.658,424.64 369.002,423.307C369.346,421.974 369.714,420.348 370.106,418.428C370.794,414.909 371.702,411.07 372.831,406.911C373.959,402.751 375.211,398.672 376.585,394.673C377.96,390.674 379.334,387.048 380.708,383.795C382.083,380.543 382.124,377.95 387.997,373.877C398.254,366.766 404.808,367.719 406.183,367.719C407.459,367.719 427.968,366 399.777,380.276C396.631,381.87 395.679,386.195 393.814,389.554C391.949,392.913 390.108,396.699 388.292,400.912C386.476,405.124 384.488,410.163 382.328,416.029C385.764,412.936 389.2,410.27 392.636,408.03C396.072,405.791 399.237,403.924 402.133,402.431C405.029,400.938 407.533,399.845 409.643,399.152C411.754,398.459 413.202,398.112 413.987,398.112C415.165,398.112 416.269,398.432 417.3,399.072C418.331,399.712 420.927,400.341 421.055,402.591C421.716,414.248 419.009,416.555 418.11,420.188C417.331,423.338 416.269,426.266 415.533,429.146C414.797,432.025 414.183,434.905 413.693,437.784C413.202,440.663 432.406,430.926 425.129,445.322C423.492,448.561 403.582,457.053 396.317,450.901C391.814,447.088 410.748,417.535 410.453,411.39C410.196,406.022 397.691,411.843 394.55,414.029C391.409,416.215 388.734,418.588 386.525,421.148C384.316,423.707 382.549,426.533 381.224,429.626C379.899,432.718 378.892,436.184 378.205,440.024C377.42,444.183 376.536,447.035 375.555,448.582C374.573,450.128 373.297,450.901 371.726,450.901C370.941,450.901 369.591,450.448 367.677,449.542C365.762,448.635 363.971,447.435 362.302,445.942C361.668,445.375 361.155,444.796 360.761,444.206Z" style="fill:rgb(169,34,15);fill-rule:nonzero;stroke:black;stroke-width:4px;"/>
    </g>
</svg>
